<svg width="30" height="30" viewBox="0 0 30 30" fill="none" xmlns="http://www.w3.org/2000/svg">
<path fill-rule="evenodd" clip-rule="evenodd" d="M1.24621 13.7343C0.557949 14.4225 0.557949 15.5384 1.24621 16.2267L13.7343 28.7148C14.4225 29.403 15.5384 29.403 16.2267 28.7148L28.7148 16.2267C29.403 15.5384 29.403 14.4225 28.7148 13.7343L16.2267 1.24619C15.5384 0.557921 14.4225 0.557921 13.7343 1.24619L1.24621 13.7343ZM3.2869 14.0903C2.79529 14.5819 2.79529 15.379 3.2869 15.8706L14.0902 26.6739C14.5818 27.1655 15.3789 27.1655 15.8705 26.6739L26.6738 15.8706C27.1654 15.379 27.1654 14.5819 26.6738 14.0903L15.8705 3.287C15.3789 2.79539 14.5818 2.79539 14.0902 3.287L3.2869 14.0903Z" fill="#8AD8BD"/>
<path d="M12.281 10.9919C12.0354 10.6561 11.5597 10.5797 11.2603 10.8686C10.6092 11.4968 10.1191 12.2778 9.8376 13.1456C9.47828 14.2535 9.47729 15.4463 9.83477 16.5547C10.1923 17.6632 10.89 18.6307 11.8289 19.3198C12.7677 20.0089 13.8999 20.3846 15.0645 20.3934C16.2291 20.4022 17.3669 20.0437 18.316 19.3689C19.2652 18.694 19.9775 17.7371 20.3517 16.6343C20.7259 15.5314 20.7429 14.3386 20.4004 13.2255C20.1321 12.3535 19.6538 11.5651 19.0123 10.9272C18.7173 10.6338 18.2405 10.703 17.9898 11.0351V11.0351C17.7391 11.3672 17.8117 11.8356 18.0914 12.1436C18.4875 12.5798 18.7853 13.0997 18.9603 13.6686C19.2097 14.479 19.1973 15.3473 18.9249 16.1501C18.6525 16.953 18.1339 17.6496 17.4429 18.1409C16.752 18.6322 15.9237 18.8931 15.0759 18.8867C14.2281 18.8803 13.4039 18.6069 12.7204 18.1052C12.0369 17.6035 11.529 16.8992 11.2687 16.0923C11.0085 15.2854 11.0092 14.417 11.2708 13.6105C11.4544 13.0443 11.7601 12.5289 12.1627 12.0988C12.447 11.7951 12.5267 11.3278 12.281 10.9919V10.9919Z" fill="white"/>
<circle cx="15.1063" cy="10.0709" r="2.26596" fill="#8AD8BD"/>
</svg>
