<svg width="17" height="18" viewBox="0 0 17 18" fill="none" xmlns="http://www.w3.org/2000/svg">
<path fill-rule="evenodd" clip-rule="evenodd" d="M10.1635 1.71136C10.1874 1.59799 10.1999 1.48047 10.1999 1.36001C10.1999 1.17627 10.1707 0.99934 10.1168 0.833588C14.038 1.58869 17 5.03844 17 9.18001C17 13.8744 13.1944 17.68 8.5 17.68C3.80558 17.68 0 13.8744 0 9.18001C0 5.03852 2.96189 1.58882 6.88296 0.833628C6.82904 0.999369 6.7999 1.17629 6.7999 1.36001C6.7999 1.48049 6.81243 1.59804 6.83626 1.71143C3.41131 2.47103 0.850052 5.5264 0.850052 9.17999C0.850052 13.405 4.27507 16.83 8.50005 16.83C12.725 16.83 16.1501 13.405 16.1501 9.17999C16.1501 5.52629 13.5886 2.47085 10.1635 1.71136Z" fill="white"/>
<circle cx="8.50014" cy="1.36" r="1.36" fill="white"/>
<path d="M12.1821 9.67725C12.1821 10.5828 12.0298 11.3742 11.7251 12.0513C11.4204 12.7241 10.9888 13.2383 10.4302 13.5938C9.87158 13.9492 9.21989 14.127 8.4751 14.127C7.74723 14.127 7.10189 13.9492 6.53906 13.5938C5.97624 13.234 5.53825 12.7241 5.2251 12.064C4.91618 11.3996 4.75749 10.6315 4.74902 9.75977V9.09326C4.74902 8.20459 4.90348 7.4196 5.2124 6.73828C5.52132 6.05697 5.95719 5.53646 6.52002 5.17676C7.08708 4.81283 7.73454 4.63086 8.4624 4.63086C9.20296 4.63086 9.85465 4.81071 10.4175 5.17041C10.9845 5.52588 11.4204 6.04427 11.7251 6.72559C12.0298 7.40267 12.1821 8.19189 12.1821 9.09326V9.67725ZM10.9697 9.08057C10.9697 7.98454 10.7497 7.14453 10.3096 6.56055C9.86947 5.97233 9.25374 5.67822 8.4624 5.67822C7.69222 5.67822 7.08496 5.97233 6.64062 6.56055C6.20052 7.14453 5.97412 7.95703 5.96143 8.99805V9.67725C5.96143 10.7394 6.18359 11.5752 6.62793 12.1846C7.0765 12.7897 7.69222 13.0923 8.4751 13.0923C9.26221 13.0923 9.87158 12.8066 10.3032 12.2354C10.7349 11.6598 10.957 10.8368 10.9697 9.76611V9.08057Z" fill="white"/>
<path fill-rule="evenodd" clip-rule="evenodd" d="M10.1635 1.71136C10.1874 1.59799 10.1999 1.48047 10.1999 1.36001C10.1999 1.17627 10.1707 0.99934 10.1168 0.833588C14.038 1.58869 17 5.03844 17 9.18001C17 13.8744 13.1944 17.68 8.5 17.68C3.80558 17.68 0 13.8744 0 9.18001C0 5.03852 2.96189 1.58882 6.88296 0.833628C6.82904 0.999369 6.7999 1.17629 6.7999 1.36001C6.7999 1.48049 6.81243 1.59804 6.83626 1.71143C3.41131 2.47103 0.850052 5.5264 0.850052 9.17999C0.850052 13.405 4.27507 16.83 8.50005 16.83C12.725 16.83 16.1501 13.405 16.1501 9.17999C16.1501 5.52629 13.5886 2.47085 10.1635 1.71136Z" fill="#FEB221"/>
<circle cx="8.50014" cy="1.36" r="1.36" fill="#FEB221"/>
<path d="M12.1821 9.67725C12.1821 10.5828 12.0298 11.3742 11.7251 12.0513C11.4204 12.7241 10.9888 13.2383 10.4302 13.5938C9.87158 13.9492 9.21989 14.127 8.4751 14.127C7.74723 14.127 7.10189 13.9492 6.53906 13.5938C5.97624 13.234 5.53825 12.7241 5.2251 12.064C4.91618 11.3996 4.75749 10.6315 4.74902 9.75977V9.09326C4.74902 8.20459 4.90348 7.4196 5.2124 6.73828C5.52132 6.05697 5.95719 5.53646 6.52002 5.17676C7.08708 4.81283 7.73454 4.63086 8.4624 4.63086C9.20296 4.63086 9.85465 4.81071 10.4175 5.17041C10.9845 5.52588 11.4204 6.04427 11.7251 6.72559C12.0298 7.40267 12.1821 8.19189 12.1821 9.09326V9.67725ZM10.9697 9.08057C10.9697 7.98454 10.7497 7.14453 10.3096 6.56055C9.86947 5.97233 9.25374 5.67822 8.4624 5.67822C7.69222 5.67822 7.08496 5.97233 6.64062 6.56055C6.20052 7.14453 5.97412 7.95703 5.96143 8.99805V9.67725C5.96143 10.7394 6.18359 11.5752 6.62793 12.1846C7.0765 12.7897 7.69222 13.0923 8.4751 13.0923C9.26221 13.0923 9.87158 12.8066 10.3032 12.2354C10.7349 11.6598 10.957 10.8368 10.9697 9.76611V9.08057Z" fill="white"/>
</svg>
