<svg width="119" height="119" viewBox="0 0 119 119" fill="none" xmlns="http://www.w3.org/2000/svg">
<path fill-rule="evenodd" clip-rule="evenodd" d="M4.94975 54.5503C2.21608 57.2839 2.21608 61.7161 4.94975 64.4497L54.5503 114.05C57.2839 116.784 61.7161 116.784 64.4497 114.05L114.05 64.4497C116.784 61.7161 116.784 57.2839 114.05 54.5503L64.4497 4.94975C61.7161 2.21608 57.2839 2.21608 54.5503 4.94975L4.94975 54.5503ZM13.0555 55.9645C11.1029 57.9171 11.1029 61.0829 13.0555 63.0356L55.9645 105.944C57.9171 107.897 61.0829 107.897 63.0355 105.944L105.944 63.0356C107.897 61.0829 107.897 57.9171 105.944 55.9645L63.0355 13.0556C61.0829 11.1029 57.9171 11.1029 55.9645 13.0556L13.0555 55.9645Z" fill="#8AD8BD"/>
<path d="M48.7782 43.6583C47.8026 42.3245 45.9131 42.0208 44.7239 43.1683C42.1381 45.6634 40.1912 48.7656 39.0732 52.2125C37.6461 56.6125 37.6422 61.3504 39.062 65.7529C40.4819 70.1553 43.2533 73.9981 46.9822 76.7352C50.7112 79.4723 55.2081 80.9644 59.8337 80.9994C64.4593 81.0343 68.9782 79.6104 72.7481 76.93C76.5181 74.2496 79.3472 70.4491 80.8335 66.0686C82.3197 61.6882 82.3874 56.9507 81.027 52.5296C79.9612 49.0662 78.0615 45.935 75.5137 43.4011C74.342 42.2358 72.4482 42.5108 71.4525 43.8297V43.8297C70.4568 45.1486 70.745 47.0093 71.856 48.2327C73.4291 49.9649 74.612 52.0302 75.3073 54.2897C76.2977 57.5082 76.2484 60.957 75.1664 64.1458C74.0844 67.3347 72.0249 70.1014 69.2804 72.0527C66.5359 74.004 63.2463 75.0406 59.8789 75.0151C56.5116 74.9897 53.238 73.9035 50.5233 71.9109C47.8087 69.9184 45.7912 67.1208 44.7575 63.916C43.7239 60.7111 43.7268 57.2619 44.7657 54.0588C45.4951 51.81 46.709 49.7629 48.3082 48.0547C49.4375 46.8482 49.7538 44.9921 48.7782 43.6583V43.6583Z" fill="white"/>
<circle cx="60" cy="40" r="9" fill="#8AD8BD"/>
</svg>
