<svg width="110" height="115" viewBox="0 0 110 115" fill="none" xmlns="http://www.w3.org/2000/svg">
<path fill-rule="evenodd" clip-rule="evenodd" d="M65.7273 11.0675C65.8814 10.3342 65.9625 9.57405 65.9625 8.79496C65.9625 7.6068 65.774 6.46266 65.4253 5.39081C90.7828 10.2743 109.938 32.5834 109.938 59.3662C109.938 89.7246 85.3272 114.335 54.9688 114.335C24.6103 114.335 0 89.7246 0 59.3662C0 32.5834 19.1546 10.2743 44.5122 5.39082C44.1635 6.46266 43.975 7.6068 43.975 8.79496C43.975 9.57405 44.056 10.3342 44.2101 11.0675C22.0608 15.9794 5.49688 35.7385 5.49688 59.3662C5.49688 86.6888 27.6462 108.838 54.9688 108.838C82.2913 108.838 104.441 86.6888 104.441 59.3662C104.441 35.7384 87.8767 15.9794 65.7273 11.0675Z" fill="#FEB221"/>
<circle cx="54.9688" cy="8.795" r="8.795" fill="#FEB221"/>
<path d="M80.6455 62.0732C80.6455 68.3428 79.5908 73.8213 77.4814 78.5088C75.3721 83.167 72.3838 86.7266 68.5166 89.1875C64.6494 91.6484 60.1377 92.8789 54.9814 92.8789C49.9424 92.8789 45.4746 91.6484 41.5781 89.1875C37.6816 86.6973 34.6494 83.167 32.4814 78.5967C30.3428 73.9971 29.2441 68.6797 29.1855 62.6445V58.0303C29.1855 51.8779 30.2549 46.4434 32.3936 41.7266C34.5322 37.0098 37.5498 33.4062 41.4463 30.916C45.3721 28.3965 49.8545 27.1367 54.8936 27.1367C60.0205 27.1367 64.5322 28.3818 68.4287 30.8721C72.3545 33.333 75.3721 36.9219 77.4814 41.6387C79.5908 46.3262 80.6455 51.79 80.6455 58.0303V62.0732ZM72.252 57.9424C72.252 50.3545 70.7285 44.5391 67.6816 40.4961C64.6348 36.4238 60.3721 34.3877 54.8936 34.3877C49.5615 34.3877 45.3574 36.4238 42.2812 40.4961C39.2344 44.5391 37.667 50.1641 37.5791 57.3711V62.0732C37.5791 69.4268 39.1172 75.2129 42.1934 79.4316C45.2988 83.6211 49.5615 85.7158 54.9814 85.7158C60.4307 85.7158 64.6494 83.7383 67.6377 79.7832C70.626 75.7988 72.1641 70.1006 72.252 62.6885V57.9424Z" fill="white"/>
</svg>
